<svg xmlns="http://www.w3.org/2000/svg" width="1916" height="512" viewBox="0 0 1916 512">
  <g id="Path_33" data-name="Path 33" fill="#344150">
    <path d="M 1915.5 511.5000915527344 L 1.736236691474915 511.5000915527344 C 9.438737869262695 506.6719360351562 46.84561920166016 483.3267211914062 101.9318466186523 450.6205749511719 C 138.1935119628906 429.09130859375 174.9070892333984 407.7784423828125 211.0527954101562 387.2741394042969 C 256.2339782714844 361.6443786621094 300.6499328613281 337.2129516601562 343.0668334960938 314.6589050292969 C 451.0311279296875 257.2515258789062 546.852294921875 211.5112915039062 627.8687744140625 178.7089080810547 C 651.2844848632812 169.2281951904297 673.756591796875 160.7184448242188 694.660400390625 153.4160614013672 C 716.661865234375 145.7303466796875 737.5316162109375 139.1705780029297 756.68994140625 133.9189147949219 C 776.7780151367188 128.4127197265625 795.5394897460938 124.1924896240234 812.4530639648438 121.3758239746094 C 830.1261596679688 118.4327239990234 846.2706298828125 116.9403457641602 860.4385375976562 116.9403457641602 C 867.0966186523438 116.9403457641602 873.4530639648438 117.2701034545898 879.3313598632812 117.9201049804688 C 885.314208984375 118.5817718505859 890.9703979492188 119.5939178466797 896.142822265625 120.9286804199219 C 901.4030151367188 122.2860565185547 906.3111572265625 124.0153427124023 910.7306518554688 126.0681991577148 C 915.2222900390625 128.1548614501953 919.3363647460938 130.6348724365234 922.95849609375 133.4393920898438 C 926.6397094726562 136.2896270751953 929.9177856445312 139.5562896728516 932.7011108398438 143.148681640625 C 935.5318603515625 146.8017730712891 937.9320678710938 150.8960571289062 939.8353881835938 155.3179626464844 C 941.7720947265625 159.8167724609375 943.2492065429688 164.782958984375 944.2258911132812 170.0779571533203 C 945.2197265625 175.4648742675781 945.7235107421875 181.3443908691406 945.7235107421875 187.5536804199219 C 945.7235107421875 195.2484436035156 946.5108642578125 202.5336761474609 948.06396484375 209.2072448730469 C 949.5885009765625 215.7579650878906 951.892822265625 221.9001007080078 954.9127807617188 227.4627227783203 C 957.873291015625 232.9158172607422 961.6025390625 237.9615325927734 965.997314453125 242.4596252441406 C 970.2985229492188 246.8620147705078 975.3546752929688 250.8605804443359 981.02587890625 254.3441467285156 C 986.5699462890625 257.7498779296875 992.8544921875 260.7572631835938 999.7047119140625 263.2825012207031 C 1006.398010253906 265.7500915527344 1013.816101074219 267.8258056640625 1021.753295898438 269.4517822265625 C 1029.5048828125 271.0398559570312 1037.965454101562 272.2429504394531 1046.899658203125 273.0274963378906 C 1055.620361328125 273.7934265136719 1065.032592773438 274.1817626953125 1074.874755859375 274.1817626953125 C 1090.955688476562 274.1817626953125 1108.773315429688 273.1467590332031 1127.83251953125 271.1053466796875 C 1146.058715820312 269.1534423828125 1165.905151367188 266.2291564941406 1186.820678710938 262.4139099121094 C 1206.760864257812 258.7767639160156 1228.19921875 254.2339172363281 1250.540161132812 248.9115295410156 C 1271.762573242188 243.8555755615234 1294.35498046875 237.9639129638672 1317.689453125 231.4003448486328 C 1398.407348632812 208.6958160400391 1491.543090820312 177.0384368896484 1594.50927734375 137.3074798583984 C 1634.958740234375 121.6993942260742 1677.041625976562 104.7924880981445 1719.588500976562 87.05629730224609 C 1753.625854492188 72.86724853515625 1788.034912109375 58.11891555786133 1821.860229492188 43.22034454345703 C 1875.031127929688 19.80116653442383 1910.13818359375 3.317025899887085 1915.5 0.789179265499115 L 1915.5 511.5000915527344 Z" stroke="none"/>
    <path d="M 1915 511.0000915527344 L 1915 1.577313303947449 C 1907.736450195312 4.995124340057373 1873.27685546875 21.12018203735352 1822.061645507812 43.67796325683594 C 1788.233520507812 58.57772445678711 1753.821411132812 73.32748413085938 1719.780883789062 87.51772308349609 C 1677.229736328125 105.2555847167969 1635.142822265625 122.1643905639648 1594.689208984375 137.7739105224609 C 1491.708251953125 177.5105895996094 1398.557739257812 209.1729583740234 1317.82470703125 231.8817749023438 C 1294.483764648438 238.4470062255859 1271.884887695312 244.3403472900391 1250.656127929688 249.3977203369141 C 1228.306396484375 254.7222442626953 1206.859252929688 259.2669982910156 1186.910400390625 262.9058227539062 C 1165.982788085938 266.7232055664062 1146.1240234375 269.6491394042969 1127.885864257812 271.6024780273438 C 1108.808715820312 273.6458129882812 1090.973266601562 274.6817626953125 1074.874755859375 274.6817626953125 C 1065.017822265625 274.6817626953125 1055.590942382812 274.292724609375 1046.855834960938 273.5255737304688 C 1037.90283203125 272.7393798828125 1029.423217773438 271.533447265625 1021.653015136719 269.9415283203125 C 1013.691345214844 268.3103332519531 1006.248718261719 266.2279663085938 999.5318603515625 263.7515258789062 C 992.650634765625 261.2148742675781 986.3363647460938 258.1929626464844 980.7639770507812 254.7701110839844 C 975.0580444335938 251.2651062011719 969.969482421875 247.2408142089844 965.6397094726562 242.8091583251953 C 961.2127685546875 238.2779693603516 957.4558715820312 233.1948699951172 954.4732666015625 227.7012939453125 C 951.4318237304688 222.0991516113281 949.1116333007812 215.9151000976562 947.5770874023438 209.3205871582031 C 946.0154418945312 202.60986328125 945.2235107421875 195.2865295410156 945.2235107421875 187.5536804199219 C 945.2235107421875 181.3748626708984 944.7225341796875 175.5255889892578 943.7342529296875 170.1686706542969 C 942.7642211914062 164.9103393554688 941.2980346679688 159.9803466796875 939.3761596679688 155.5155792236328 C 937.4894409179688 151.1324920654297 935.1109008789062 147.0748748779297 932.305908203125 143.4551086425781 C 929.5482788085938 139.8960571289062 926.3004150390625 136.6591491699219 922.652587890625 133.8348693847656 C 919.0596923828125 131.0529632568359 914.977783203125 128.5924835205078 910.5199584960938 126.5217742919922 C 906.1278076171875 124.4815368652344 901.2487182617188 122.7624893188477 896.0180053710938 121.412727355957 C 890.8685302734375 120.0839157104492 885.2359008789062 119.076057434082 879.2763671875 118.4170074462891 C 873.4163818359375 117.768913269043 867.0782470703125 117.4403457641602 860.4385375976562 117.4403457641602 C 846.2982788085938 117.4403457641602 830.1815795898438 118.9303436279297 812.53564453125 121.8689117431641 C 795.6389770507812 124.6827239990234 776.8944702148438 128.8991546630859 756.8232421875 134.4008178710938 C 737.6761474609375 139.6493988037109 716.8175659179688 146.2055816650391 694.8270874023438 153.8874816894531 C 673.93115234375 161.18701171875 651.4671020507812 169.6939086914062 628.0589599609375 179.1712951660156 C 547.0594482421875 211.9667663574219 451.2549438476562 257.6989135742188 343.3066101074219 315.0974731445312 C 300.8942260742188 337.6493835449219 256.4823303222656 362.0781860351562 211.30517578125 387.705810546875 C 175.1623229980469 408.2084350585938 138.4515991210938 429.5196228027344 102.1923217773438 451.0474853515625 C 50.02980804443359 482.0176391601562 13.72148609161377 504.5933227539062 3.477297782897949 511.0000915527344 L 1915 511.0000915527344 M 1916 512.0001220703125 L -6.103515625e-05 512.0001220703125 C -6.103515625e-05 512.0001220703125 627.3919677734375 116.4404067993164 860.4384765625 116.4404067993164 C 913.594970703125 116.4404067993164 946.2235107421875 137.0124816894531 946.2235107421875 187.5536804199219 C 946.2235107421875 249.6880187988281 996.84375 273.6818542480469 1074.874755859375 273.6818542480469 C 1338.586669921875 273.6818542480469 1916 0.0001060267823049799 1916 0.0001060267823049799 L 1916 512.0001220703125 Z" stroke="none" fill="#707070"/>
  </g>
</svg>
