<svg xmlns="http://www.w3.org/2000/svg" width="1921" height="512" viewBox="0 0 1921 512">
  <g id="Path_33" data-name="Path 33" fill="#344150">
    <path d="M 1920.5 511.5000915527344 L 1.740286350250244 511.5000915527344 C 9.462826728820801 506.6717529296875 46.96662521362305 483.3269958496094 102.196662902832 450.6210632324219 C 138.5531005859375 429.0915222167969 175.3626251220703 407.7786865234375 211.6023864746094 387.2743835449219 C 256.9016723632812 361.6446228027344 301.4335632324219 337.2131958007812 343.9609375 314.6591491699219 C 452.2071533203125 257.2517700195312 548.278564453125 211.5115356445312 629.5064086914062 178.7091522216797 C 652.9833374023438 169.2284393310547 675.5140380859375 160.7186737060547 696.4725952148438 153.4162902832031 C 718.5314331054688 145.7303466796875 739.4556884765625 139.1705780029297 758.6640625 133.9191589355469 C 778.8045043945312 128.4127197265625 797.614990234375 124.1924896240234 814.5728759765625 121.3758239746094 C 832.2921142578125 118.4327239990234 848.4790649414062 116.9403457641602 862.6840209960938 116.9403457641602 C 869.3594970703125 116.9403457641602 875.7326049804688 117.2701034545898 881.6264038085938 117.9201049804688 C 887.625 118.5817718505859 893.2962036132812 119.5939178466797 898.4821166992188 120.9286804199219 C 903.7561645507812 122.2860565185547 908.6771240234375 124.0153427124023 913.1083374023438 126.0684356689453 C 917.6118774414062 128.1551055908203 921.7366943359375 130.6351013183594 925.3685913085938 133.4398651123047 C 929.0592651367188 136.2901000976562 932.345947265625 139.5567779541016 935.1366577148438 143.1491546630859 C 937.9747314453125 146.80224609375 940.3811645507812 150.8965301513672 942.28955078125 155.3182067871094 C 944.231201171875 159.8172454833984 945.712158203125 164.783203125 946.69140625 170.0782012939453 C 947.6876220703125 175.4648742675781 948.19287109375 181.3446350097656 948.19287109375 187.5536804199219 C 948.19287109375 195.2486724853516 948.9823608398438 202.5339202880859 950.53955078125 209.2074890136719 C 952.068115234375 215.7584381103516 954.3783569335938 221.9005889892578 957.4061889648438 227.4631958007812 C 960.37451171875 232.9162902832031 964.1135864257812 237.9620056152344 968.519775390625 242.4601135253906 C 972.8319091796875 246.8624877929688 977.9014282226562 250.8610534667969 983.587158203125 254.3443908691406 C 989.1456909179688 257.7500915527344 995.4464111328125 260.7572631835938 1002.314514160156 263.28271484375 C 1009.025268554688 265.7500915527344 1016.462646484375 267.8258056640625 1024.420288085938 269.4517822265625 C 1032.192138671875 271.0398559570312 1040.674560546875 272.2429504394531 1049.631958007812 273.0277099609375 C 1058.375244140625 273.7934265136719 1067.811889648438 274.1817626953125 1077.679809570312 274.1817626953125 C 1093.802612304688 274.1817626953125 1111.666625976562 273.1467590332031 1130.775756835938 271.1053466796875 C 1149.049072265625 269.1534423828125 1168.947387695312 266.2291564941406 1189.917602539062 262.4139099121094 C 1209.909545898438 258.7767639160156 1231.40380859375 254.2339172363281 1253.803100585938 248.9115295410156 C 1275.080688476562 243.8555755615234 1297.73193359375 237.9641571044922 1321.12744140625 231.4005889892578 C 1402.055908203125 208.6960601806641 1495.4345703125 177.0386810302734 1598.669555664062 137.3077239990234 C 1639.224487304688 121.6996307373047 1681.417114257812 104.792724609375 1724.074951171875 87.05629730224609 C 1758.201171875 72.86748504638672 1792.7001953125 58.11891555786133 1826.613525390625 43.2205810546875 C 1879.930297851562 19.79830741882324 1915.13134765625 3.312916040420532 1920.5 0.7884265780448914 L 1920.5 511.5000915527344 Z" stroke="none"/>
    <path d="M 1920 511.0000915527344 L 1920 1.575592517852783 C 1912.727294921875 4.988872528076172 1878.173950195312 21.11601257324219 1826.814819335938 43.67844009399414 C 1792.898315429688 58.57820129394531 1758.396240234375 73.32796478271484 1724.26708984375 87.51795959472656 C 1681.60498046875 105.2560577392578 1639.408325195312 122.1646270751953 1598.848999023438 137.7741546630859 C 1495.599731445312 177.5108184814453 1402.205932617188 209.1732025146484 1321.262573242188 231.8817749023438 C 1297.860717773438 238.4472503662109 1275.202880859375 244.340576171875 1253.918823242188 249.3979644775391 C 1231.5107421875 254.7224884033203 1210.0078125 259.2669982910156 1190.006958007812 262.9058227539062 C 1169.024780273438 266.7232055664062 1149.1142578125 269.6491394042969 1130.82861328125 271.6024780273438 C 1111.7021484375 273.6458129882812 1093.820190429688 274.6817626953125 1077.679809570312 274.6817626953125 C 1067.79736328125 274.6817626953125 1058.345947265625 274.292724609375 1049.58837890625 273.5255737304688 C 1040.611938476562 272.7393798828125 1032.110473632812 271.533447265625 1024.320190429688 269.9415283203125 C 1016.337829589844 268.3105773925781 1008.876220703125 266.2279663085938 1002.141906738281 263.7520141601562 C 995.2431030273438 261.2151184082031 988.91259765625 258.1934509277344 983.325927734375 254.7708129882812 C 977.605224609375 251.2658233642578 972.5036010742188 247.2415313720703 968.16259765625 242.8101043701172 C 963.7240600585938 238.2789154052734 959.9573974609375 233.1958160400391 956.9669189453125 227.7022552490234 C 953.9176025390625 222.1001129150391 951.5914306640625 215.9158172607422 950.0526123046875 209.3210601806641 C 948.4866943359375 202.6103515625 947.69287109375 195.2867736816406 947.69287109375 187.5536804199219 C 947.69287109375 181.3751068115234 947.1904907226562 175.5260620117188 946.1997680664062 170.1691589355469 C 945.2273559570312 164.9108276367188 943.7573852539062 159.9810638427734 941.8305053710938 155.5162963867188 C 939.9390258789062 151.1334381103516 937.5540771484375 147.0758209228516 934.7418823242188 143.4560546875 C 931.9769287109375 139.8967742919922 928.720458984375 136.6601104736328 925.0628662109375 133.8355865478516 C 921.460693359375 131.0536804199219 917.3678588867188 128.5929565429688 912.8980712890625 126.5220108032227 C 908.4945068359375 124.4817733764648 903.6023559570312 122.7627258300781 898.3576049804688 121.4129638671875 C 893.1945190429688 120.0839157104492 887.546875 119.076057434082 881.5716552734375 118.4170074462891 C 875.6961669921875 117.768913269043 869.3414306640625 117.4403457641602 862.6840209960938 117.4403457641602 C 848.5066528320312 117.4403457641602 832.3475952148438 118.9303436279297 814.6554565429688 121.8689117431641 C 797.7142944335938 124.6829605102539 778.9209594726562 128.8991546630859 758.797119140625 134.4010620117188 C 739.5997314453125 139.6493988037109 718.6868896484375 146.2058258056641 696.6387939453125 153.8877258300781 C 675.6883544921875 161.187255859375 653.1654663085938 169.6941528320312 629.6961669921875 179.1717681884766 C 548.4852294921875 211.9672546386719 452.4304809570312 257.6994018554688 344.2004699707031 315.0982055664062 C 301.6771545410156 337.6498718261719 257.1495361328125 362.0789184570312 211.8545227050781 387.706298828125 C 175.6173858642578 408.2089233398438 138.8107147216797 429.5201110839844 102.456901550293 451.0479736328125 C 50.16178131103516 482.0158996582031 13.7587251663208 504.5914306640625 3.484820604324341 511.0000915527344 L 1920 511.0000915527344 M 1921 512.0001220703125 L 0 512.0001220703125 C 0 512.0001220703125 629.0292358398438 116.4404067993164 862.6839599609375 116.4404067993164 C 915.9791870117188 116.4404067993164 948.69287109375 137.0124816894531 948.69287109375 187.5536804199219 C 948.69287109375 249.6880187988281 999.4451904296875 273.6818542480469 1077.679809570312 273.6818542480469 C 1342.079956054688 273.6818542480469 1921 0.0001060267823049799 1921 0.0001060267823049799 L 1921 512.0001220703125 Z" stroke="none" fill="#707070"/>
  </g>
</svg>
