<?xml version="1.0" encoding="iso-8859-1"?>
<!-- Generator: Adobe Illustrator 19.0.0, SVG Export Plug-In . SVG Version: 6.00 Build 0)  -->
<svg version="1.1" id="Layer_1" xmlns="http://www.w3.org/2000/svg" xmlns:xlink="http://www.w3.org/1999/xlink" x="0px" y="0px"
	 viewBox="0 0 512 512" style="enable-background:new 0 0 512 512;" xml:space="preserve">
<g>
	<g>
		<path d="M217.043,411.825c-27.619,0-50.087,22.468-50.087,50.087s22.468,50.087,50.087,50.087s50.087-22.468,50.087-50.087
			S244.661,411.825,217.043,411.825z M217.043,478.608c-9.206,0-16.696-7.49-16.696-16.696s7.49-16.696,16.696-16.696
			s16.696,7.49,16.696,16.696S226.248,478.608,217.043,478.608z"/>
	</g>
</g>
<g>
	<g>
		<path d="M406.259,411.825c-27.619,0-50.087,22.468-50.087,50.087s22.468,50.087,50.087,50.087
			c27.619,0,50.087-22.468,50.087-50.087S433.878,411.825,406.259,411.825z M406.259,478.608c-9.206,0-16.696-7.49-16.696-16.696
			s7.49-16.696,16.696-16.696s16.696,7.49,16.696,16.696S415.465,478.608,406.259,478.608z"/>
	</g>
</g>
<g>
	<g>
		<path d="M495.302,77.914H123.463L111,13.522c-1.523-7.847-8.391-13.521-16.392-13.521H16.696C7.479,0.001,0,7.48,0,16.697
			c0,9.217,7.479,16.696,16.696,16.696h64.141l8.617,44.522h-0.007l39.715,205.169c-17.066,7.992-28.989,25.207-28.989,45.265
			c0,27.619,22.468,50.087,50.087,50.087h322.781c9.217,0,16.696-7.479,16.696-16.696c0-9.217-7.479-16.696-16.696-16.696H150.26
			c-9.206,0-16.696-7.49-16.696-16.696s7.49-16.696,16.696-16.696h322.781h3.013l0.051-0.309
			c7.751-1.443,13.631-8.219,13.631-16.386c0-6.22-3.444-11.583-8.49-14.456L511.77,97.36
			C513.466,87.136,505.58,77.914,495.302,77.914z M222.608,228.174c0,9.217-7.479,16.696-16.696,16.696
			c-9.217,0-16.696-7.479-16.696-16.696v-66.782c0-9.217,7.479-16.696,16.696-16.696c9.217,0,16.696,7.478,16.696,16.696V228.174z
			 M322.781,228.174c0,9.217-7.478,16.696-16.696,16.696s-16.696-7.479-16.696-16.696v-66.782c0-9.217,7.478-16.696,16.696-16.696
			s16.696,7.478,16.696,16.696V228.174z M422.955,228.174c0,9.217-7.479,16.696-16.696,16.696c-9.217,0-16.696-7.479-16.696-16.696
			v-66.782c0-9.217,7.479-16.696,16.696-16.696c9.217,0,16.696,7.478,16.696,16.696V228.174z"/>
	</g>
</g>
<g>
</g>
<g>
</g>
<g>
</g>
<g>
</g>
<g>
</g>
<g>
</g>
<g>
</g>
<g>
</g>
<g>
</g>
<g>
</g>
<g>
</g>
<g>
</g>
<g>
</g>
<g>
</g>
<g>
</g>
</svg>
