<?xml version="1.0" encoding="utf-8"?>
<!-- Uploaded to SVGRepo https://www.svgrepo.com -->
<svg version="1.1" id="Layer_1" xmlns="http://www.w3.org/2000/svg" xmlns:xlink="http://www.w3.org/1999/xlink" x="0px" y="0px"
	 width="25px" height="25px" viewBox="0 0 260 260" enable-background="new 0 0 260 260" xml:space="preserve">
<path d="M258,50l-18.857,79.395C235.702,143.882,222.899,154,208.01,154H93.552l4.504,18.768C99.784,179.97,106.165,185,113.571,185
	H227v16H113.571c-14.834,0-27.612-10.074-31.074-24.498L47.394,30.233C45.665,23.03,39.285,18,31.878,18H2V2h29.878
	C46.711,2,59.49,12.074,62.952,26.499L68.592,50H258z M96.649,235c0,12.703,10.297,23,23,23s23-10.297,23-23s-10.297-23-23-23
	S96.649,222.297,96.649,235z M180.649,235c0,12.703,10.297,23,23,23s23-10.297,23-23s-10.297-23-23-23S180.649,222.297,180.649,235z
	"/>
</svg>
